{
  "accessors": [
    {
      "bufferView": 1,
      "componentType": 5126,
      "count": 818,
      "max": [
        8.25,
        -67.617301940917969,
        -34.560001373291016
      ],
      "min": [
        -19.75,
        -93.5,
        -48.219001770019531
      ],
      "type": "VEC3"
    },
    {
      "bufferView": 1,
      "byteOffset": 9816,
      "componentType": 5126,
      "count": 818,
      "max": [
        0.99859195947647095,
        0.88400477170944214,
        1
      ],
      "min": [
        -0.99859195947647095,
        -0.99859189987182617,
        -1
      ],
      "type": "VEC3"
    },
    {
      "bufferView": 0,
      "componentType": 5125,
      "count": 4104,
      "max": [
        817
      ],
      "min": [
        0
      ],
      "type": "SCALAR"
    },
    {
      "bufferView": 1,
      "byteOffset": 19632,
      "componentType": 5126,
      "count": 3222,
      "max": [
        29.25,
        -0.25,
        -20.218999862670898
      ],
      "min": [
        -42.36199951171875,
        -107.34799957275391,
        -48.219001770019531
      ],
      "type": "VEC3"
    },
    {
      "bufferView": 1,
      "byteOffset": 58296,
      "componentType": 5126,
      "count": 3222,
      "max": [
        1,
        1,
        1
      ],
      "min": [
        -1,
        -0.99999994039535522,
        -1
      ],
      "type": "VEC3"
    },
    {
      "bufferView": 0,
      "byteOffset": 16416,
      "componentType": 5125,
      "count": 14058,
      "max": [
        3221
      ],
      "min": [
        0
      ],
      "type": "SCALAR"
    }
  ],
  "asset": {
    "extras": {
      "author": "meg-weis (https://sketchfab.com/meg-weis)",
      "license": "CC-BY-4.0 (http://creativecommons.org/licenses/by/4.0/)",
      "source": "https://sketchfab.com/3d-models/herosbot-0fe21bcadef7470f9529244091a2e5e2",
      "title": "Hero'sbot"
    },
    "generator": "Sketchfab-9.52.0",
    "version": "2.0"
  },
  "bufferViews": [
    {
      "buffer": 0,
      "byteLength": 72648,
      "byteOffset": 0,
      "name": "floatBufferViews",
      "target": 34963
    },
    {
      "buffer": 0,
      "byteLength": 96960,
      "byteOffset": 72648,
      "byteStride": 12,
      "name": "floatBufferViews",
      "target": 34962
    }
  ],
  "buffers": [
    {
      "byteLength": 169608,
      "uri": "scene.bin"
    }
  ],
  "materials": [
    {
      "doubleSided": true,
      "emissiveFactor": [
        0,
        0,
        0
      ],
      "name": "color_15277357",
      "pbrMetallicRoughness": {
        "baseColorFactor": [
          0.91372500000000001,
          0.11372500000000001,
          0.17647099999999999,
          1
        ],
        "metallicFactor": 0,
        "roughnessFactor": 1
      }
    },
    {
      "doubleSided": true,
      "emissiveFactor": [
        0,
        0,
        0
      ],
      "name": "color_2829873",
      "pbrMetallicRoughness": {
        "baseColorFactor": [
          0.168627,
          0.180392,
          0.19215699999999999,
          1
        ],
        "metallicFactor": 0,
        "roughnessFactor": 1
      }
    }
  ],
  "meshes": [
    {
      "primitives": [
        {
          "attributes": {
            "NORMAL": 1,
            "POSITION": 0
          },
          "indices": 2,
          "material": 0,
          "mode": 4
        }
      ]
    },
    {
      "primitives": [
        {
          "attributes": {
            "NORMAL": 4,
            "POSITION": 3
          },
          "indices": 5,
          "material": 1,
          "mode": 4
        }
      ]
    }
  ],
  "nodes": [
    {
      "children": [
        1
      ],
      "name": "RootNode (gltf orientation matrix)",
      "rotation": [
        -0.70710678118654746,
        -0,
        -0,
        0.70710678118654757
      ]
    },
    {
      "children": [
        2
      ],
      "matrix": [
        1,
        0,
        0,
        0,
        0,
        2.2204460492503131e-16,
        -1,
        0,
        0,
        1,
        2.2204460492503131e-16,
        0,
        0,
        -19.579906463623047,
        -88.017890930175781,
        1
      ],
      "name": "RootNode (model correction matrix)"
    },
    {
      "children": [
        3,
        4
      ],
      "name": "tinker.obj.cleaner.materialmerger.gles"
    },
    {
      "mesh": 0,
      "name": ""
    },
    {
      "mesh": 1,
      "name": ""
    }
  ],
  "scene": 0,
  "scenes": [
    {
      "name": "OSG_Scene",
      "nodes": [
        0
      ]
    }
  ]
}

