{
  "accessors": [
    {
      "bufferView": 1,
      "componentType": 5126,
      "count": 1001,
      "max": [
        39,
        -0,
        -1
      ],
      "min": [
        -11,
        -3.2727000713348389,
        -51
      ],
      "type": "VEC3"
    },
    {
      "bufferView": 1,
      "byteOffset": 12012,
      "componentType": 5126,
      "count": 1001,
      "max": [
        0.2705916166305542,
        1,
        0.27059158682823181
      ],
      "min": [
        -0.27058964967727661,
        -1,
        -0.27058622241020203
      ],
      "type": "VEC3"
    },
    {
      "bufferView": 0,
      "componentType": 5125,
      "count": 4812,
      "max": [
        1000
      ],
      "min": [
        0
      ],
      "type": "SCALAR"
    },
    {
      "bufferView": 1,
      "byteOffset": 24024,
      "componentType": 5126,
      "count": 549,
      "max": [
        34,
        -1,
        -6
      ],
      "min": [
        -6,
        -7.25,
        -46
      ],
      "type": "VEC3"
    },
    {
      "bufferView": 1,
      "byteOffset": 30612,
      "componentType": 5126,
      "count": 549,
      "max": [
        0.5325055718421936,
        1,
        0.54969877004623413
      ],
      "min": [
        -0.49214810132980347,
        -0.98946160078048706,
        -0.54969882965087891
      ],
      "type": "VEC3"
    },
    {
      "bufferView": 0,
      "byteOffset": 19248,
      "componentType": 5125,
      "count": 2409,
      "max": [
        548
      ],
      "min": [
        0
      ],
      "type": "SCALAR"
    },
    {
      "bufferView": 1,
      "byteOffset": 37200,
      "componentType": 5126,
      "count": 576,
      "max": [
        23.043500900268555,
        -3.1217999458312988,
        -16.482099533081055
      ],
      "min": [
        4.0597000122070312,
        -4.75,
        -35.517898559570312
      ],
      "type": "VEC3"
    },
    {
      "bufferView": 1,
      "byteOffset": 44112,
      "componentType": 5126,
      "count": 576,
      "max": [
        0.35053196549415588,
        -0.92968952655792236,
        0.35911169648170471
      ],
      "min": [
        -0.36275717616081238,
        -0.9902690052986145,
        -0.3592517077922821
      ],
      "type": "VEC3"
    },
    {
      "bufferView": 0,
      "byteOffset": 28884,
      "componentType": 5125,
      "count": 2721,
      "max": [
        575
      ],
      "min": [
        0
      ],
      "type": "SCALAR"
    }
  ],
  "asset": {
    "extras": {
      "author": "meg-weis (https://sketchfab.com/meg-weis)",
      "license": "CC-BY-4.0 (http://creativecommons.org/licenses/by/4.0/)",
      "source": "https://sketchfab.com/3d-models/capsheild-b450061d91584f6e9b2608b0ffa8af8d",
      "title": "Capsheild"
    },
    "generator": "Sketchfab-9.52.0",
    "version": "2.0"
  },
  "bufferViews": [
    {
      "buffer": 0,
      "byteLength": 39768,
      "byteOffset": 0,
      "name": "floatBufferViews",
      "target": 34963
    },
    {
      "buffer": 0,
      "byteLength": 51024,
      "byteOffset": 39768,
      "byteStride": 12,
      "name": "floatBufferViews",
      "target": 34962
    }
  ],
  "buffers": [
    {
      "byteLength": 90792,
      "uri": "scene.bin"
    }
  ],
  "materials": [
    {
      "doubleSided": true,
      "emissiveFactor": [
        0,
        0,
        0
      ],
      "name": "color_11146280",
      "pbrMetallicRoughness": {
        "baseColorFactor": [
          0.66666700000000001,
          0.078431399999999998,
          0.156863,
          1
        ],
        "metallicFactor": 0,
        "roughnessFactor": 1
      }
    },
    {
      "doubleSided": true,
      "emissiveFactor": [
        0,
        0,
        0
      ],
      "name": "color_16777215",
      "pbrMetallicRoughness": {
        "baseColorFactor": [
          1,
          1,
          1,
          1
        ],
        "metallicFactor": 0,
        "roughnessFactor": 1
      }
    },
    {
      "doubleSided": true,
      "emissiveFactor": [
        0,
        0,
        0
      ],
      "name": "color_66",
      "pbrMetallicRoughness": {
        "baseColorFactor": [
          0,
          0,
          0.258824,
          1
        ],
        "metallicFactor": 0,
        "roughnessFactor": 1
      }
    }
  ],
  "meshes": [
    {
      "primitives": [
        {
          "attributes": {
            "NORMAL": 1,
            "POSITION": 0
          },
          "indices": 2,
          "material": 0,
          "mode": 4
        }
      ]
    },
    {
      "primitives": [
        {
          "attributes": {
            "NORMAL": 4,
            "POSITION": 3
          },
          "indices": 5,
          "material": 1,
          "mode": 4
        }
      ]
    },
    {
      "primitives": [
        {
          "attributes": {
            "NORMAL": 7,
            "POSITION": 6
          },
          "indices": 8,
          "material": 2,
          "mode": 4
        }
      ]
    }
  ],
  "nodes": [
    {
      "children": [
        1
      ],
      "name": "RootNode (gltf orientation matrix)",
      "rotation": [
        -0.70710678118654746,
        -0,
        -0,
        0.70710678118654757
      ]
    },
    {
      "children": [
        2
      ],
      "name": "RootNode (model correction matrix)"
    },
    {
      "children": [
        3,
        4,
        5
      ],
      "name": "tinker.obj.cleaner.materialmerger.gles"
    },
    {
      "mesh": 0,
      "name": ""
    },
    {
      "mesh": 1,
      "name": ""
    },
    {
      "mesh": 2,
      "name": ""
    }
  ],
  "scene": 0,
  "scenes": [
    {
      "name": "OSG_Scene",
      "nodes": [
        0
      ]
    }
  ]
}

