{
  "accessors": [
    {
      "bufferView": 1,
      "componentType": 5126,
      "count": 198,
      "max": [
        27.069000244140625,
        -13.277799606323242,
        -12.296799659729004
      ],
      "min": [
        11.683199882507324,
        -29.38800048828125,
        -24.254999160766602
      ],
      "type": "VEC3"
    },
    {
      "bufferView": 1,
      "byteOffset": 2376,
      "componentType": 5126,
      "count": 198,
      "max": [
        0.99980998039245605,
        0.95340251922607422,
        0.53219705820083618
      ],
      "min": [
        -0.81192260980606079,
        -0.85941231250762939,
        -0.93812376260757446
      ],
      "type": "VEC3"
    },
    {
      "bufferView": 0,
      "componentType": 5125,
      "count": 510,
      "max": [
        197
      ],
      "min": [
        0
      ],
      "type": "SCALAR"
    },
    {
      "bufferView": 1,
      "byteOffset": 4752,
      "componentType": 5126,
      "count": 1095,
      "max": [
        27.420999526977539,
        0.05299999937415123,
        12.201000213623047
      ],
      "min": [
        -7.5630002021789551,
        -34.841999053955078,
        -22.628999710083008
      ],
      "type": "VEC3"
    },
    {
      "bufferView": 1,
      "byteOffset": 17892,
      "componentType": 5126,
      "count": 1095,
      "max": [
        0.99961429834365845,
        0.99818986654281616,
        0.99612671136856079
      ],
      "min": [
        -0.99938905239105225,
        -0.99818164110183716,
        -0.99754106998443604
      ],
      "type": "VEC3"
    },
    {
      "bufferView": 0,
      "byteOffset": 2040,
      "componentType": 5125,
      "count": 4614,
      "max": [
        1094
      ],
      "min": [
        0
      ],
      "type": "SCALAR"
    },
    {
      "bufferView": 1,
      "byteOffset": 31032,
      "componentType": 5126,
      "count": 608,
      "max": [
        27.045999526977539,
        0.3619999885559082,
        8.7995996475219727
      ],
      "min": [
        -7.189000129699707,
        -35.1510009765625,
        -19.227500915527344
      ],
      "type": "VEC3"
    },
    {
      "bufferView": 1,
      "byteOffset": 38328,
      "componentType": 5126,
      "count": 608,
      "max": [
        0.98574572801589966,
        0.99714368581771851,
        0.97081971168518066
      ],
      "min": [
        -0.98872506618499756,
        -0.99783766269683838,
        -0.97078609466552734
      ],
      "type": "VEC3"
    },
    {
      "bufferView": 0,
      "byteOffset": 20496,
      "componentType": 5125,
      "count": 2160,
      "max": [
        607
      ],
      "min": [
        0
      ],
      "type": "SCALAR"
    }
  ],
  "asset": {
    "extras": {
      "author": "meg-weis (https://sketchfab.com/meg-weis)",
      "license": "CC-BY-4.0 (http://creativecommons.org/licenses/by/4.0/)",
      "source": "https://sketchfab.com/3d-models/pixarball-dd464627053e460980ee01c6064ef52e",
      "title": "pixarball"
    },
    "generator": "Sketchfab-9.52.0",
    "version": "2.0"
  },
  "bufferViews": [
    {
      "buffer": 0,
      "byteLength": 29136,
      "byteOffset": 0,
      "name": "floatBufferViews",
      "target": 34963
    },
    {
      "buffer": 0,
      "byteLength": 45624,
      "byteOffset": 29136,
      "byteStride": 12,
      "name": "floatBufferViews",
      "target": 34962
    }
  ],
  "buffers": [
    {
      "byteLength": 74760,
      "uri": "scene.bin"
    }
  ],
  "materials": [
    {
      "doubleSided": true,
      "emissiveFactor": [
        0,
        0,
        0
      ],
      "name": "color_15277357",
      "pbrMetallicRoughness": {
        "baseColorFactor": [
          0.91372500000000001,
          0.11372500000000001,
          0.17647099999999999,
          1
        ],
        "metallicFactor": 0,
        "roughnessFactor": 1
      }
    },
    {
      "doubleSided": true,
      "emissiveFactor": [
        0,
        0,
        0
      ],
      "name": "color_16768282",
      "pbrMetallicRoughness": {
        "baseColorFactor": [
          1,
          0.86666699999999997,
          0.101961,
          1
        ],
        "metallicFactor": 0,
        "roughnessFactor": 1
      }
    },
    {
      "doubleSided": true,
      "emissiveFactor": [
        0,
        0,
        0
      ],
      "name": "color_5760",
      "pbrMetallicRoughness": {
        "baseColorFactor": [
          0,
          0.086274500000000004,
          0.50196099999999999,
          1
        ],
        "metallicFactor": 0,
        "roughnessFactor": 1
      }
    }
  ],
  "meshes": [
    {
      "primitives": [
        {
          "attributes": {
            "NORMAL": 1,
            "POSITION": 0
          },
          "indices": 2,
          "material": 0,
          "mode": 4
        }
      ]
    },
    {
      "primitives": [
        {
          "attributes": {
            "NORMAL": 4,
            "POSITION": 3
          },
          "indices": 5,
          "material": 1,
          "mode": 4
        }
      ]
    },
    {
      "primitives": [
        {
          "attributes": {
            "NORMAL": 7,
            "POSITION": 6
          },
          "indices": 8,
          "material": 2,
          "mode": 4
        }
      ]
    }
  ],
  "nodes": [
    {
      "children": [
        1
      ],
      "name": "RootNode (gltf orientation matrix)",
      "rotation": [
        -0.70710678118654746,
        -0,
        -0,
        0.70710678118654757
      ]
    },
    {
      "children": [
        2
      ],
      "matrix": [
        -3.7145405939228559e-15,
        0.00063294882420450449,
        0.99999982118606567,
        0,
        9.2157184661267877e-19,
        0.99999982118606567,
        -0.00063294882420450449,
        0,
        -1,
        -9.2157184661267877e-19,
        -3.6637359812630166e-15,
        0,
        3.9020264148712158,
        -0.0062880227342247963,
        -15.966948509216309,
        1
      ],
      "name": "RootNode (model correction matrix)"
    },
    {
      "children": [
        3,
        4,
        5
      ],
      "name": "tinker.obj.cleaner.materialmerger.gles"
    },
    {
      "mesh": 0,
      "name": ""
    },
    {
      "mesh": 1,
      "name": ""
    },
    {
      "mesh": 2,
      "name": ""
    }
  ],
  "scene": 0,
  "scenes": [
    {
      "name": "OSG_Scene",
      "nodes": [
        0
      ]
    }
  ]
}

